<?xml version="1.0" encoding="UTF-8"?>
<svg width="1500px" height="1550px" viewBox="0 0 6776 7000" version="1.1" xmlns="http://www.w3.org/2000/svg" xmlns:xlink="http://www.w3.org/1999/xlink">
    <!-- Generator: Sketch 52.2 (67145) - http://www.bohemiancoding.com/sketch -->
    <title>Female-Body-Silhouette</title>
    <desc>Created with Sketch.</desc>
    <g id="Page-1" stroke="none" stroke-width="1" fill="none" fill-rule="evenodd">
        <g id="Female-Body-Silhouette-Copy-2">
            <path d="M1688.20457,4660 L1051.23089,4660 C989.769807,4231.85764 964.763062,4263.14702 990.855007,3809.5947 C1094.89158,2504.52278 1395.77833,3302.43514 1147.79218,2109.26185 C1103.68211,2213.8469 1017.47091,2453.65604 1015.51082,2458.78477 C940.701786,2652.64562 961.45372,2726.20186 908.189338,2835.49509 C862.064881,2941.00844 833.293428,2993.4138 833.293428,2993.4138 C472.49104,3918.90331 592.143148,3617.43146 569.469136,3850.86046 C554.108796,3974.69876 530.386871,4049.2192 530.386871,4049.2192 C525.945458,4125.39109 547.745304,4234.18171 526.977082,4282.00198 C524.072245,4290.01818 498.04274,4315.16435 483.643439,4265.39003 C474.358822,4237.35126 471.084773,4086.25376 451.163569,4064.23612 C421.941458,4081.73022 410.251528,4327.33482 353.028968,4377.20146 C343.022214,4383.05847 319.349156,4377.45277 318.920217,4366.3542 C316.080536,4275.90392 319.533762,4342.70049 333.650723,4230.82752 C351.030875,4084.77668 356.357313,4081.82766 352.849791,4069.16483 C330.050898,4054.11714 311.802011,4128.56065 305.063876,4145.4393 C302.854029,4151.83995 252.499913,4281.98147 250.067452,4289.86432 C221.442598,4386.83834 132.64148,4411.19981 187.621616,4254.94793 C187.621616,4254.94793 195.597699,4219.78023 215.540622,4152.67593 C248.503727,4049.1474 257.641745,4038.26424 239.838085,4037.1154 C204.583688,4062.13334 152.779869,4185.95113 109.207324,4238.35649 C102.089118,4247.42409 91.3547977,4252.93234 82.922628,4260.7793 C78.3291859,4265.22078 71.368438,4262.37433 66.2374654,4260.32284 C17.523089,4235.7152 135.291126,4056.77382 161.771288,3981.23276 C167.010852,3965.52346 188.615233,3871.72926 178.711641,3861.23075 C135.50831,3894.07 139.455629,3908.17914 117.183408,3932.31494 C98.7824913,3951.75795 57.7944365,3981.08403 29.6202391,3976.41688 C20.7917086,3982.60726 7.64121599,3978.06321 2.77629388,3969.33411 C-15.7223553,3936.34612 62.491041,3900.66042 110.939367,3795.75739 C114.381734,3788.39766 184.597328,3716.64673 292.760402,3676.29902 C317.562817,3666.34928 317.437936,3690.17223 384.759554,3497.17813 C531.125296,3124.59132 415.496523,2918.98568 662.402179,2467.37539 C699.801268,2393.92173 716.160655,2339.56232 750.144525,2210.32346 C888.04009,1674.48405 782.895875,1743.71165 836.312286,1516.65766 C933.827912,1193.29639 1111.8808,1211.5085 1226.05987,1213.26766 C1318.0536,1215.20632 1471.6027,1153.26665 1513.47578,1111.99576 C1570.78522,1053.08718 1610.73079,1006.61063 1576.88809,810.144384 C1576.88809,810.144384 1538.67999,747.876478 1527.59817,635.126487 C1477.18976,693.014457 1394.18203,461.570277 1440.37164,416.175891 C1449.84629,406.600553 1468.43724,409.836782 1474.5184,421.381552 C1481.53344,428.992587 1481.65832,440.332208 1490.19908,446.840566 C1501.05828,398.840785 1472.34113,300.68203 1533.28296,154.667098 C1563.36838,91.6401404 1594.28453,75.1923046 1650.27457,39.5784063 C1695.88864,8.55984969 1806.87511,0.62570501 1812.30471,0 L1863.67416,0 C1869.10376,0.62570501 1980.09023,8.55984969 2025.7043,39.5784063 C2081.69434,75.1923046 2112.61049,91.6401404 2142.6959,154.667098 C2203.63774,300.68203 2174.92058,398.840785 2185.77978,446.840566 C2194.32055,440.332208 2194.44543,428.992587 2201.46047,421.381552 C2207.54162,409.836782 2226.13258,406.600553 2235.60723,416.175891 C2281.79684,461.570277 2198.78911,693.014457 2148.38069,635.126487 C2137.29888,747.876478 2099.09078,810.144384 2099.09078,810.144384 C2065.24808,1006.61063 2105.19365,1053.08718 2162.50309,1111.99576 C2204.37617,1153.26665 2357.92527,1215.20632 2449.92442,1213.26766 C2564.09806,1211.5085 2742.15095,1193.29639 2839.67201,1516.65766 C2893.08842,1743.71165 2787.94421,1674.48405 2925.83977,2210.32346 C2959.82364,2339.56232 2976.18303,2393.92173 3013.58212,2467.37539 C3260.48777,2918.98568 3144.859,3124.59132 3291.22474,3497.17813 C3358.54636,3690.17223 3358.42148,3666.34928 3383.2239,3676.29902 C3491.38697,3716.64673 3516.5966,3690.85435 3565.04493,3795.75739 C3613.49326,3900.66042 3691.70665,3936.34612 3673.22972,3969.33411 C3668.3648,3978.06321 3655.21431,3982.60726 3646.38578,3976.41688 C3618.21158,3981.08403 3577.22352,3951.75795 3558.82261,3932.31494 C3536.55039,3908.17914 3540.49771,3894.07 3497.29437,3861.23075 C3487.39078,3871.72926 3508.99516,3965.52346 3514.23473,3981.23276 C3540.71489,4056.77382 3658.48293,4235.7152 3609.76855,4260.32284 C3604.63758,4262.37433 3597.67683,4265.22078 3593.08339,4260.7793 C3584.65122,4252.93234 3573.9169,4247.42409 3566.79869,4238.35649 C3523.22615,4185.95113 3471.42233,4062.13334 3436.16793,4037.1154 C3418.36427,4038.26424 3427.50229,4049.1474 3460.46539,4152.67593 C3480.40832,4219.78023 3488.3844,4254.94793 3488.3844,4254.94793 C3543.36453,4411.19981 3454.56342,4386.83834 3425.93856,4289.86432 C3423.5061,4281.98147 3373.15199,4151.83995 3370.94214,4145.4393 C3364.204,4128.56065 3345.95512,4054.11714 3323.15622,4069.16483 C3319.6487,4081.82766 3324.97514,4084.77668 3342.35529,4230.82752 C3356.47225,4342.70049 3359.92548,4275.90392 3357.0858,4366.3542 C3356.65686,4377.45277 3332.9838,4383.05847 3322.97705,4377.20146 C3265.75449,4327.33995 3254.06456,4081.73022 3224.84245,4064.23612 C3204.92124,4086.25376 3201.64719,4237.35126 3192.36258,4265.39003 C3177.96327,4315.16435 3151.93377,4290.01818 3149.02893,4282.00198 C3128.26071,4234.18171 3150.06056,4125.39109 3145.61914,4049.2192 C3145.61914,4049.2192 3121.89722,3974.69876 3106.53688,3850.86046 C3083.86287,3617.43146 3203.51498,3918.89818 2842.71259,2993.4138 C2842.71259,2993.4138 2813.94113,2941.00844 2767.81668,2835.49509 C2714.5523,2726.20699 2735.30423,2652.65075 2660.49519,2458.78477 C2658.53511,2453.65604 2572.32391,2213.8469 2528.21383,2109.26185 C2280.23312,3302.43514 2581.11443,2504.52278 2685.15101,3809.5947 C2711.24295,4263.14702 2686.23621,4231.85764 2624.77512,4660 L1987.80152,4660 C1986.3796,4647.53564 1984.84168,4634.92607 1983.17967,4622.15471 L1916.8571,4159.40483 C1900.85063,4140.74138 1889.79597,4118.9648 1877.93772,4097.89597 C1860.71503,4066.08246 1863.52213,4095.26494 1863.67416,3914.92855 C1855.94241,3913.81048 1848.00976,3913.48737 1840.48976,3911.4564 C1839.61017,3909.7434 1838.82288,3908.06631 1838.12246,3906.4046 C1838.08445,3906.4405 1838.04644,3906.48153 1838.00301,3906.52256 C1837.95957,3906.48153 1837.92156,3906.4405 1837.88356,3906.4046 C1837.18314,3908.06631 1836.39585,3909.7434 1835.51625,3911.4564 C1827.99625,3913.48737 1820.06361,3913.81048 1812.33186,3914.92855 C1812.48388,4095.26494 1815.29099,4066.08246 1798.0683,4097.89597 C1786.21005,4118.9648 1775.15538,4140.74138 1759.14892,4159.40483 C1759.88734,4269.11861 1716.24964,4444.00829 1692.82635,4622.15471 C1691.16436,4634.92607 1689.62646,4647.53564 1688.20457,4660 Z" id="Combined-Shape" fill="#808080"></path>
            <g id="heart-solid" transform="translate(1732.000000, 1575.000000)" fill="#FA0C1A">
                <path d="M375.621492,27.0770642 C331.097349,-14.2016446 264.879873,-6.7767805 224.011909,39.0982728 L208.005967,57.0416944 L192.000025,39.0982728 C151.213309,-6.7767805 84.9145848,-14.2016446 40.3904414,27.0770642 C-10.6335769,74.4547686 -13.3147754,159.487141 32.3468462,210.842451 L189.562572,387.448148 C199.718626,398.850617 216.212059,398.850617 226.368113,387.448148 L383.583839,210.842451 C429.326709,159.487141 426.64551,74.4547686 375.621492,27.0770642 Z" id="Path"></path>
            </g>
            <path d="M1801.10848,4118.28745 C1804.35462,4115.41972 1807.05934,4102.72882 1809.64988,4078.18289 C1814.78841,4029.49187 1811.28091,4001.56947 1794.85052,3960.32695 L1782.01116,3928.10088 L1752.22984,3911.38798 C1722.70907,3894.82146 1722.18396,3894.63158 1692.26738,3889.73544 C1663.11976,3884.96502 1661.11678,3884.2762 1633.77762,3869.61824 C1605.35123,3854.37781 1591.18081,3842.71047 1591.18081,3834.54596 C1591.18081,3821.38331 1622.02111,3790.9092 1635.34181,3790.9092 C1643.86253,3790.9092 1636.60287,3798.23851 1623.48505,3802.87952 C1615.67562,3805.64242 1611.24122,3809.55437 1605.74149,3818.53233 C1596.08383,3834.29736 1596.22346,3837.04417 1607.17758,3846.85449 C1613.65077,3852.65086 1621.0043,3856.30355 1631.59682,3858.98445 C1639.93295,3861.0942 1653.18165,3864.92959 1661.03881,3867.50697 L1675.32421,3872.19343 L1701.45642,3869.061 C1723.80504,3866.38184 1730.75838,3864.53287 1749.48136,3856.28985 C1777.03335,3844.16011 1780.10963,3843.3136 1810.26848,3839.56347 C1860.15518,3833.35972 1902.84428,3839.54498 1943.6768,3858.89419 L1970.09424,3871.41217 L1990.30304,3870.96412 C2001.41788,3870.71617 2017.18393,3869.16975 2025.33906,3867.52545 C2049.95799,3862.56102 2082.92658,3841.89289 2082.92658,3831.4231 C2082.92658,3826.66355 2075.87697,3819.02344 2058.6426,3805.10541 C2040.97979,3790.84134 2042.78387,3785.21376 2061.63414,3795.78055 C2089.44829,3811.37397 2097.34524,3830.70405 2082.43091,3846.68876 C2072.30105,3857.54569 2033.82914,3878.81413 2014.70318,3884.13047 C2005.89246,3886.5793 1991.8378,3889.09599 1983.47024,3889.72326 C1971.30239,3890.63458 1966.41847,3892.1623 1959.07209,3897.3525 C1954.02068,3900.92167 1939.14613,3909.71475 1926.01837,3916.89246 C1903.42628,3929.24492 1902.04548,3930.48511 1900.21037,3940.07141 C1899.14424,3945.64201 1893.68428,3958.07213 1888.07793,3967.69388 C1880.42842,3980.82217 1876.93405,3991.62212 1874.07697,4010.96916 C1871.98449,4025.14862 1868.93885,4040.05453 1867.31299,4044.09306 C1862.64388,4055.6895 1872.06683,4105.61091 1880.66353,4114.82399 C1884.4666,4118.89884 1887.57669,4122.59047 1887.57669,4123.02721 C1887.57669,4123.46438 1881.48342,4125.15435 1874.036,4126.78343 C1859.38541,4129.9885 1828.41622,4130.44417 1811.11781,4127.70998 C1797.3615,4125.53302 1795.20298,4123.50157 1801.10848,4118.28745 Z" id="path1004-copy" fill="#FA0C1A"></path>
            <path d="M1679.57589,3905.52513 C1670.25972,3900.63326 1647.63006,3872.60351 1638.61234,3854.7872 C1634.48493,3846.63199 1633.52554,3839.49985 1635.05369,3828.32818 C1636.20214,3819.91633 1637.6631,3807.82511 1638.29983,3801.45861 C1642.0538,3763.80175 1654.62119,3762.79509 1677.99032,3798.27887 C1688.00845,3813.49044 1689.78621,3819.00694 1689.78621,3834.87829 C1689.78621,3847.45427 1688.16509,3854.91221 1684.82519,3857.68295 C1677.80906,3863.5057 1678.17235,3893.32689 1685.35645,3901.2653 C1692.61321,3909.28379 1690.16708,3911.08616 1679.57589,3905.52474 L1679.57589,3905.52513 Z M2003.98583,3856.03058 C1996.77165,3841.09597 1995.4603,3817.83817 2001.22016,3807.02979 C2006.47532,3797.17182 2034.37382,3765.07833 2037.68794,3765.07833 C2039.16062,3765.07833 2040.36376,3767.36352 2040.36376,3770.15576 C2040.36376,3772.94877 2042.75052,3778.87621 2045.66814,3783.32862 C2051.82918,3792.7319 2054.21047,3815.75376 2051.51863,3839.89399 C2049.90141,3854.38485 2047.05098,3859.78807 2031.76753,3877.31257 C2021.94315,3888.5772 2013.90513,3899.77231 2013.90513,3902.19031 C2013.90513,3904.60832 2011.54962,3907.49001 2008.6734,3908.59393 C1998.31347,3912.56939 1996.34703,3910.46115 2003.40652,3902.94697 C2012.51839,3893.24915 2012.75277,3874.18361 2003.98583,3856.03058 Z" id="path1026-copy" fill="#FA0C1A" fill-rule="nonzero"></path>
            <g id="brain-solid" transform="translate(1555.000000, 121.000000)" fill="#392410" fill-rule="nonzero">
                <path d="M208,0 C178.13,0 153.26,20.55 146.2,48.22 C145.45,48.2 144.75,48 144,48 C108.66,48 80,76.65 80,112 C80,116.84 80.64,121.51 81.66,126.04 C52.54,138 32,166.57 32,200 C32,212.58 35.16,224.32 40.34,234.91 C16.34,248.72 0,274.33 0,304 C0,337.34 20.42,365.88 49.42,377.89 C48.52,382.46 48,387.17 48,392 C48,431.76 80.23,464 120,464 C124.12,464 128.1,463.45 132.03,462.79 C141.61,491.31 168.25,512 200,512 C239.77,512 272,479.76 272,440 L272,205.45 C261.09,214.43 248.02,220.9 233.64,223.84 C228.67,224.86 224,221.02 224,215.95 L224,199.77 C224,196.2 226.35,192.99 229.8,192.11 C254,185.95 272,164.16 272,138.07 L272,64 C272,28.65 243.34,0 208,0 Z M576,304 C576,274.33 559.66,248.72 535.66,234.91 C540.83,224.32 544,212.58 544,200 C544,166.57 523.46,138 494.34,126.04 C495.36,121.51 496,116.84 496,112 C496,76.65 467.34,48 432,48 C431.25,48 430.55,48.2 429.8,48.22 C422.74,20.55 397.87,0 368,0 C332.66,0 304,28.65 304,64 L304,138.07 C304,164.16 321.99,185.95 346.2,192.11 C349.66,192.99 352,196.2 352,199.77 L352,215.95 C352,221.02 347.32,224.86 342.36,223.84 C327.98,220.9 314.92,214.43 304,205.45 L304,440 C304,479.76 336.23,512 376,512 C407.75,512 434.39,491.31 443.97,462.79 C447.9,463.46 451.88,464 456,464 C495.77,464 528,431.76 528,392 C528,387.17 527.48,382.46 526.58,377.89 C555.58,365.88 576,337.34 576,304 Z" id="Shape"></path>
            </g>
            <path d="M2218.67921,1256.7233 C2143.65025,1180.84065 2068.88557,1121.132 1961.03508,1218.84863 C1950.83301,1134.76688 1966.06033,812.329268 1968.64875,775.969591 C1963.56909,775.969591 1952.306,776.975542 1940.14513,776.09685 C1940.05962,806.396581 1928.76155,1150.42578 1926.78332,1187.41569 C1921.68034,1282.85984 1916.58125,1276.7999 1899.5778,1304.06965 C1908.32243,1203.69877 1930.91468,938.957902 1929.04138,775 C1919.01032,775.339357 1908.31077,776.502867 1901.03523,775.715074 C1903.8685,909.791381 1866.94671,1223.39359 1862.73762,1348.6345 C1858.3381,1356.93662 1847.99611,1372.57734 1841.68443,1379.64324 C1781.77008,1243.08842 1762.12769,929.486206 1753.27035,784.0475 C1732.54362,784.0475 1714.40531,784.0475 1696.59346,784.0475 C1697.56509,911.306368 1711.8169,1101.18266 1725.55569,1228.14459 C1656.43033,1160.52165 1561.12547,1188.5489 1524.28919,1215.16418 C1466.43858,1256.96569 1389.75785,1345.73784 1332.51353,1475.28131 C1288.8953,1573.99177 1260.038,1689.97308 1226,1808.80256 C1238.63114,1852.73717 1259.03528,1883.45504 1266.80829,1888 C1273.60968,1841.03542 1421.9109,1246.89406 1584.53,1246.87588 C1697.88767,1246.86376 1737.11415,1353.99149 1742.90504,1405.27075 C1746.23966,1434.78875 1744.3275,1473.62695 1740.57314,1511.22285 C1751.32321,1515.27696 1741.28826,1585.50113 1753.27035,1616.80681 C1766.29888,1606.29861 1768.89301,1605.4495 1775.51894,1600.24201 C1778.44574,1597.94176 1801.76991,1594.62026 1791.05663,1589.53055 C1793.50492,1584.12704 1817.23637,1574.87333 1827,1576.04106 C1836.76363,1577.20879 1865.4684,1574.25211 1871.70772,1579.77797 C1876.80334,1584.2909 1881.08998,1582.46207 1884.40204,1584.10212 C1894.65922,1589.18122 1897.42409,1588.71659 1901.03523,1596.68298 C1919.49613,1590.18671 1858.98719,1501.76224 1871.70772,1500.99263 C1862.73762,1495.05749 1876.08004,1474.76962 1871.70772,1466.4372 C1867.33541,1458.10477 1885.08218,1445.417 1884.40204,1421.09238 C1883.43041,1386.24769 1950.68144,1343.69564 1989.92347,1300.6579 C2012.61288,1275.78183 2051.85491,1257.40201 2071.95591,1258.74126 C2132.52708,1262.78324 2221.85837,1345.956 2275.72921,1436.69157 C2367.33411,1590.99598 2418.51937,1802.65172 2438.91185,1857.66391 C2454.45787,1833.42413 2462.22699,1806.15437 2470,1765.75271 C2455.75596,1711.21925 2362.47598,1402.162 2218.67921,1256.7233 Z M1769.00126,1269.91429 L1757,1173 L1775,1279 L1769.00126,1269.91429 Z M1786,1355 C1799.47351,1376.94587 1801.77233,1386.64788 1809,1404 C1799.47351,1404 1791.91462,1374.90625 1786,1355 Z M2025.1733,3473.96574 C1992.1492,3384.42664 1914.93111,3207.90671 1903.7612,3182.32411 C1892.59128,3156.74151 1890.16304,3134.56992 1885.30656,3048.44183 C1880.45007,2962.31375 1890.02317,2855.95153 1891.61999,2816.49293 C1905.78538,2466.81631 1934.09917,2299.57609 1940.65736,1971 C1933.30233,1973.24367 1902.24907,1943.06148 1891.61999,1930.36442 C1875.7479,1911.40428 1859.61629,1888.75207 1851.5,1882.46395 C1827.17096,2243.44466 1844.99774,2850.60306 1819.25838,3026.27025 C1803.23198,2968.28302 1813.91624,2124.05723 1792.01544,1817.23658 C1744.37528,1771.35845 1737.08667,1734.86061 1732.32731,1720.41838 C1726.98518,1721.83736 1735.76802,1700.32373 1731.98773,1696.13501 C1754.14107,1949.5733 1761.46622,2883.00087 1738.64074,3105.56948 C1729.3396,3196.24786 1722.1287,3236.8935 1675.9921,3377.5978 C1629.8555,3518.30209 1607.80318,3674.35595 1608.00132,3734.90144 C1608.07514,3757.33226 1580.67138,3855.37474 1591.18081,3856.9711 C1594.81018,3865.53461 1634.36818,3856.9711 1634.36818,3841.22016 C1634.36818,3825.46921 1631.21428,3821.07979 1634.36818,3816.14315 C1649.1238,3793.04689 1643.76021,3782.17622 1644.98693,3770.13964 C1645.70081,3763.13558 1674.51942,3797.86078 1675.9921,3789.68334 C1695.23791,3682.81575 1750.99158,3433.02376 1755.15279,3420.23546 C1764.86576,3390.3891 1792.06207,3286.35319 1832.85653,3247.97929 C1886.27785,3300.85 1937.27094,3422.79372 1969.80938,3514.89108 C2002.34782,3606.98844 2007.82657,3782.00856 2010.25481,3789.68334 C2011.3407,3793.11544 2029.12713,3766.56915 2041.218,3765.07833 C2045.27868,3764.57764 2038.5427,3775.1636 2041.218,3778.46881 C2048.38986,3787.32933 2063.61189,3802.93225 2070.84656,3797.43889 C2081.16151,3801.72347 2087.22227,3825.11734 2091.70713,3822.75427 C2106.85978,3814.77033 2095.07974,3753.6412 2091.70713,3739.16521 C2087.33629,3720.40463 2058.19739,3563.50484 2025.1733,3473.96574 Z" id="grouped-organs-copy" fill="#2D2020" fill-rule="nonzero"></path>
            <path d="M1921.08497,769.817301 C1915.03409,766.137554 1908.08866,763.892517 1905.64995,764.828236 C1900.76081,766.704438 1887.7438,752.111858 1887.7438,744.75502 C1887.7438,742.199119 1884.97423,734.586418 1881.58785,727.837481 C1877.03426,718.760615 1874.90297,704.805975 1873.39904,674.224894 C1872.28184,651.48687 1870.41462,629.534366 1869.24741,625.441527 C1867.42316,619.032126 1868.3724,618 1876.10221,618 C1882.45388,618 1891.3716,623.769039 1906.62419,637.744929 C1920.05878,650.05548 1934.68558,659.926811 1945.47091,663.96215 C1965.99234,671.640165 2008.69967,680.829064 2024.03234,680.865353 C2036.87356,680.895119 2043.1889,690.962079 2043.1889,711.398972 C2043.1889,726.491521 2034.16961,740.014123 2016.14862,751.939785 L2003.50076,760.309725 L2003.50076,729.247972 C2003.50076,694.904604 2000.81712,689.499516 1984.68365,691.349468 L1975.38819,692.415111 L1975.38819,730.147948 C1975.38819,757.380459 1974.23974,768.271494 1971.25414,769.28487 C1968.28144,770.295043 1967.12009,765.620748 1967.12009,752.627921 C1967.12009,731.002454 1961.64539,724.306134 1947.90532,729.124416 C1939.87004,731.942039 1938.81533,734.246412 1937.02546,752.897613 C1935.9356,764.25682 1934.37698,774.216005 1933.56447,775.029143 C1932.75195,775.842047 1927.13546,773.496696 1921.08458,769.817144 L1921.08497,769.817301 Z M1752.90959,759.469594 C1753.57757,748.949385 1752.55802,745.427297 1748.83531,745.224364 C1746.10479,745.075924 1741.25081,743.757152 1738.04412,742.293457 C1730.45727,738.829729 1723.16966,744.957562 1721.3583,756.323918 C1720.58094,761.193138 1720.12,747.520924 1720.33485,725.9412 L1720.72548,686.705331 L1738.13045,680.218585 C1750.17244,675.730622 1759.26477,669.270713 1767.63756,659.254183 C1786.91639,636.190373 1828.3198,610.639139 1828.14792,621.911509 C1827.91354,637.659732 1820.44232,673.386834 1811.70859,700.587352 C1800.55138,735.335493 1791.0856,753.601374 1784.23549,753.601374 C1781.82139,753.601374 1776.54708,758.06629 1772.51225,763.52341 C1768.47781,768.980529 1762.21755,773.445445 1758.60109,773.445445 C1752.93576,773.445445 1752.14825,771.510258 1752.91233,759.469789 L1752.90959,759.469594 Z M1661.49131,732.807639 C1645.50121,717.686535 1643,713.66065 1643,703.041532 L1643,690.761607 L1667.80509,690.761607 L1692.61018,690.761607 L1692.57385,708.125169 C1692.53479,733.033893 1689.09723,750.293821 1684.21004,750.293821 C1681.88579,750.293821 1671.66179,742.42506 1661.49171,732.807639 L1661.49131,732.807639 Z" id="path958-copy" fill="#59070A" fill-rule="nonzero"></path>
        </g>
    </g>
</svg>
